<?xml version="1.0" encoding="UTF-8"?>
<!DOCTYPE svg PUBLIC "-//W3C//DTD SVG 1.1//EN"
  "http://www.w3.org/Graphics/SVG/1.1/DTD/svg11.dtd">
<!-- Created with Inkpad (http://www.taptrix.com/) --><svg xmlns:inkpad="http://taptrix.com/inkpad/svg_extensions" height="151pt" xmlns:xlink="http://www.w3.org/1999/xlink" xmlns="http://www.w3.org/2000/svg" width="200pt" version="1.1" viewBox="0,0,200,151">
<defs/>
<g id="Untitled" inkpad:layerName="Untitled">
<path d="M133.349+86.9428C146.476+86.9428+165.483+84.2193+165.483+68.6429C165.526+67.4404+165.42+66.2372+165.168+65.0604L157.345+31.1737C155.538+23.7155+153.953+20.332+140.826+13.7851C130.65+8.58953+108.44+0+101.877+0C95.7857+0+94.0005+7.85627+86.7126+7.85627C79.6976+7.85627+74.489+1.99026+67.9151+1.99026C61.6143+1.99026+57.5188+6.28502+54.3474+15.084C54.3474+15.084+45.5262+39.9308+44.3711+43.5342C44.1979+44.197+44.1271+44.8823+44.1611+45.5664C44.1611+55.2244+82.281+86.8904+133.349+86.8904M167.51+74.9698C169.327+83.5593+169.327+84.4497+169.327+85.581C169.327+100.246+152.798+108.385+131.07+108.385C81.9659+108.417+38.9524+79.715+38.9524+60.7552C38.9448+58.1118+39.4809+55.495+40.5276+53.0665C22.9063+53.9464+0.0133664+57.0889+0.0133664+77.2219C0.0133664+110.197+78.3535+150.84+140.364+150.84C187.914+150.84+199.907+129.388+199.907+112.449C199.907+99.1252+188.355+83.9993+167.531+74.9698" opacity="1" fill="#ee0000"/>
<path d="M167.51+74.9698C169.327+83.5593+169.327+84.4497+169.327+85.581C169.327+100.246+152.798+108.385+131.07+108.385C81.9659+108.417+38.9524+79.715+38.9524+60.7552C38.9448+58.1118+39.4809+55.495+40.5276+53.0665L44.3816+43.5761C44.2055+44.2244+44.1277+44.8952+44.1506+45.5664C44.1506+55.2244+82.2705+86.8904+133.349+86.8904C146.476+86.8904+165.483+84.1878+165.483+68.601C165.527+67.395+165.421+66.1882+165.168+65.0081L167.51+74.9698Z" opacity="1" fill="#000000"/>
</g>
</svg>
